<mxfile host="app.diagrams.net" modified="2023-11-01T06:35:30.070Z" agent="Mozilla/5.0 (Windows NT 10.0; Win64; x64) AppleWebKit/537.36 (KHTML, like Gecko) Chrome/118.0.0.0 Safari/537.36" etag="MSwWp-RIHx9FXdTKlKE5" version="21.6.2" type="github">
  <diagram name="페이지-1" id="ZsXA97BigSt-bQZ7k6LO">
    <mxGraphModel dx="2582" dy="1338" grid="1" gridSize="10" guides="1" tooltips="1" connect="1" arrows="1" fold="1" page="1" pageScale="1" pageWidth="3300" pageHeight="2339" math="0" shadow="0">
      <root>
        <mxCell id="0" />
        <mxCell id="1" parent="0" />
        <mxCell id="SWG0Anp1lalEB30ZzXDK-2" value="업데이트" style="rhombus;whiteSpace=wrap;html=1;fillColor=#f5f5f5;fontColor=#333333;strokeColor=none;fontSize=16;" vertex="1" parent="1">
          <mxGeometry x="680" y="210" width="160" height="80" as="geometry" />
        </mxCell>
        <mxCell id="SWG0Anp1lalEB30ZzXDK-3" value="회원" style="rounded=0;whiteSpace=wrap;html=1;fillColor=#9CB3FC;strokeColor=none;fontSize=17;fontStyle=1" vertex="1" parent="1">
          <mxGeometry x="360" y="220" width="120" height="60" as="geometry" />
        </mxCell>
        <mxCell id="SWG0Anp1lalEB30ZzXDK-4" value="회원아이디" style="ellipse;whiteSpace=wrap;html=1;fillColor=#dae8fc;strokeColor=#6c8ebf;fontSize=16;" vertex="1" parent="1">
          <mxGeometry x="140" y="115" width="120" height="60" as="geometry" />
        </mxCell>
        <mxCell id="SWG0Anp1lalEB30ZzXDK-5" value="비밀번호" style="ellipse;whiteSpace=wrap;html=1;fillColor=#dae8fc;strokeColor=#6c8ebf;fontSize=16;" vertex="1" parent="1">
          <mxGeometry x="140" y="185" width="120" height="60" as="geometry" />
        </mxCell>
        <mxCell id="SWG0Anp1lalEB30ZzXDK-6" value="의료자격증&lt;br&gt;번호" style="ellipse;whiteSpace=wrap;html=1;fillColor=#dae8fc;strokeColor=#6c8ebf;fontSize=16;" vertex="1" parent="1">
          <mxGeometry x="140" y="255" width="120" height="60" as="geometry" />
        </mxCell>
        <mxCell id="SWG0Anp1lalEB30ZzXDK-7" value="이름" style="ellipse;whiteSpace=wrap;html=1;fillColor=#dae8fc;strokeColor=#6c8ebf;fontSize=16;" vertex="1" parent="1">
          <mxGeometry x="140" y="325" width="120" height="60" as="geometry" />
        </mxCell>
        <mxCell id="SWG0Anp1lalEB30ZzXDK-8" value="" style="endArrow=none;html=1;rounded=0;exitX=1;exitY=0.5;exitDx=0;exitDy=0;entryX=0;entryY=0.5;entryDx=0;entryDy=0;" edge="1" parent="1" source="SWG0Anp1lalEB30ZzXDK-4" target="SWG0Anp1lalEB30ZzXDK-3">
          <mxGeometry width="50" height="50" relative="1" as="geometry">
            <mxPoint x="300" y="190" as="sourcePoint" />
            <mxPoint x="350" y="140" as="targetPoint" />
          </mxGeometry>
        </mxCell>
        <mxCell id="SWG0Anp1lalEB30ZzXDK-9" value="" style="endArrow=none;html=1;rounded=0;exitX=1;exitY=0.5;exitDx=0;exitDy=0;entryX=0;entryY=0.5;entryDx=0;entryDy=0;" edge="1" parent="1" source="SWG0Anp1lalEB30ZzXDK-5" target="SWG0Anp1lalEB30ZzXDK-3">
          <mxGeometry width="50" height="50" relative="1" as="geometry">
            <mxPoint x="270" y="160" as="sourcePoint" />
            <mxPoint x="370" y="240" as="targetPoint" />
          </mxGeometry>
        </mxCell>
        <mxCell id="SWG0Anp1lalEB30ZzXDK-10" value="" style="endArrow=none;html=1;rounded=0;exitX=1;exitY=0.5;exitDx=0;exitDy=0;entryX=0;entryY=0.5;entryDx=0;entryDy=0;" edge="1" parent="1" source="SWG0Anp1lalEB30ZzXDK-6" target="SWG0Anp1lalEB30ZzXDK-3">
          <mxGeometry width="50" height="50" relative="1" as="geometry">
            <mxPoint x="280" y="170" as="sourcePoint" />
            <mxPoint x="380" y="250" as="targetPoint" />
          </mxGeometry>
        </mxCell>
        <mxCell id="SWG0Anp1lalEB30ZzXDK-11" value="" style="endArrow=none;html=1;rounded=0;exitX=1;exitY=0.5;exitDx=0;exitDy=0;entryX=0;entryY=0.5;entryDx=0;entryDy=0;" edge="1" parent="1" source="SWG0Anp1lalEB30ZzXDK-7" target="SWG0Anp1lalEB30ZzXDK-3">
          <mxGeometry width="50" height="50" relative="1" as="geometry">
            <mxPoint x="270" y="300" as="sourcePoint" />
            <mxPoint x="370" y="240" as="targetPoint" />
          </mxGeometry>
        </mxCell>
        <mxCell id="SWG0Anp1lalEB30ZzXDK-12" value="추가정보" style="rounded=0;whiteSpace=wrap;html=1;fillColor=#9CB3FC;strokeColor=none;fontSize=17;fontStyle=1" vertex="1" parent="1">
          <mxGeometry x="1040" y="220" width="120" height="60" as="geometry" />
        </mxCell>
        <mxCell id="SWG0Anp1lalEB30ZzXDK-13" value="사진업로드" style="rounded=0;whiteSpace=wrap;html=1;fillColor=#9CB3FC;strokeColor=none;fontSize=17;fontStyle=1" vertex="1" parent="1">
          <mxGeometry x="360" y="760" width="120" height="60" as="geometry" />
        </mxCell>
        <mxCell id="SWG0Anp1lalEB30ZzXDK-15" value="결과" style="rounded=0;whiteSpace=wrap;html=1;fillColor=#9CB3FC;strokeColor=none;fontSize=17;fontStyle=1" vertex="1" parent="1">
          <mxGeometry x="1040" y="760" width="120" height="60" as="geometry" />
        </mxCell>
        <mxCell id="SWG0Anp1lalEB30ZzXDK-16" value="유사병변" style="rounded=0;whiteSpace=wrap;html=1;fillColor=#9CB3FC;strokeColor=none;fontSize=17;fontStyle=1" vertex="1" parent="1">
          <mxGeometry x="1040" y="1255" width="120" height="60" as="geometry" />
        </mxCell>
        <mxCell id="SWG0Anp1lalEB30ZzXDK-17" value="가입날짜" style="ellipse;whiteSpace=wrap;html=1;fillColor=#dae8fc;strokeColor=#6c8ebf;fontSize=16;" vertex="1" parent="1">
          <mxGeometry x="1280" y="150.5" width="120" height="60" as="geometry" />
        </mxCell>
        <mxCell id="SWG0Anp1lalEB30ZzXDK-18" value="생년월일" style="ellipse;whiteSpace=wrap;html=1;fillColor=#dae8fc;strokeColor=#6c8ebf;fontSize=16;" vertex="1" parent="1">
          <mxGeometry x="1280" y="220.5" width="120" height="60" as="geometry" />
        </mxCell>
        <mxCell id="SWG0Anp1lalEB30ZzXDK-19" value="전화번호" style="ellipse;whiteSpace=wrap;html=1;fillColor=#dae8fc;strokeColor=#6c8ebf;fontSize=16;" vertex="1" parent="1">
          <mxGeometry x="1280" y="290.5" width="120" height="60" as="geometry" />
        </mxCell>
        <mxCell id="SWG0Anp1lalEB30ZzXDK-20" value="이메일" style="ellipse;whiteSpace=wrap;html=1;fillColor=#dae8fc;strokeColor=#6c8ebf;fontSize=16;" vertex="1" parent="1">
          <mxGeometry x="1280" y="360.5" width="120" height="60" as="geometry" />
        </mxCell>
        <mxCell id="SWG0Anp1lalEB30ZzXDK-21" value="" style="endArrow=none;html=1;rounded=0;entryX=0;entryY=0.5;entryDx=0;entryDy=0;exitX=1;exitY=0.5;exitDx=0;exitDy=0;" edge="1" parent="1" source="SWG0Anp1lalEB30ZzXDK-12" target="SWG0Anp1lalEB30ZzXDK-17">
          <mxGeometry width="50" height="50" relative="1" as="geometry">
            <mxPoint x="980" y="390" as="sourcePoint" />
            <mxPoint x="1030" y="340" as="targetPoint" />
          </mxGeometry>
        </mxCell>
        <mxCell id="SWG0Anp1lalEB30ZzXDK-22" value="" style="endArrow=none;html=1;rounded=0;entryX=0;entryY=0.5;entryDx=0;entryDy=0;exitX=1;exitY=0.5;exitDx=0;exitDy=0;" edge="1" parent="1" source="SWG0Anp1lalEB30ZzXDK-12" target="SWG0Anp1lalEB30ZzXDK-18">
          <mxGeometry width="50" height="50" relative="1" as="geometry">
            <mxPoint x="1170" y="260" as="sourcePoint" />
            <mxPoint x="1290" y="180" as="targetPoint" />
          </mxGeometry>
        </mxCell>
        <mxCell id="SWG0Anp1lalEB30ZzXDK-23" value="" style="endArrow=none;html=1;rounded=0;entryX=0;entryY=0.5;entryDx=0;entryDy=0;exitX=1;exitY=0.5;exitDx=0;exitDy=0;" edge="1" parent="1" source="SWG0Anp1lalEB30ZzXDK-12" target="SWG0Anp1lalEB30ZzXDK-19">
          <mxGeometry width="50" height="50" relative="1" as="geometry">
            <mxPoint x="1180" y="270" as="sourcePoint" />
            <mxPoint x="1300" y="190" as="targetPoint" />
          </mxGeometry>
        </mxCell>
        <mxCell id="SWG0Anp1lalEB30ZzXDK-24" value="" style="endArrow=none;html=1;rounded=0;entryX=0;entryY=0.5;entryDx=0;entryDy=0;exitX=1;exitY=0.5;exitDx=0;exitDy=0;" edge="1" parent="1" source="SWG0Anp1lalEB30ZzXDK-12" target="SWG0Anp1lalEB30ZzXDK-20">
          <mxGeometry width="50" height="50" relative="1" as="geometry">
            <mxPoint x="1190" y="280" as="sourcePoint" />
            <mxPoint x="1310" y="200" as="targetPoint" />
          </mxGeometry>
        </mxCell>
        <mxCell id="SWG0Anp1lalEB30ZzXDK-25" value="작성" style="rhombus;whiteSpace=wrap;html=1;fillColor=#f5f5f5;fontColor=#333333;strokeColor=none;fontSize=16;" vertex="1" parent="1">
          <mxGeometry x="340" y="480" width="160" height="80" as="geometry" />
        </mxCell>
        <mxCell id="SWG0Anp1lalEB30ZzXDK-26" value="사진번호" style="ellipse;whiteSpace=wrap;html=1;fillColor=#dae8fc;strokeColor=#6c8ebf;fontSize=16;" vertex="1" parent="1">
          <mxGeometry x="140" y="655" width="120" height="60" as="geometry" />
        </mxCell>
        <mxCell id="SWG0Anp1lalEB30ZzXDK-27" value="사진날짜" style="ellipse;whiteSpace=wrap;html=1;fillColor=#dae8fc;strokeColor=#6c8ebf;fontSize=16;" vertex="1" parent="1">
          <mxGeometry x="140" y="725" width="120" height="60" as="geometry" />
        </mxCell>
        <mxCell id="SWG0Anp1lalEB30ZzXDK-28" value="사진링크" style="ellipse;whiteSpace=wrap;html=1;fillColor=#dae8fc;strokeColor=#6c8ebf;fontSize=16;" vertex="1" parent="1">
          <mxGeometry x="140" y="795" width="120" height="60" as="geometry" />
        </mxCell>
        <mxCell id="SWG0Anp1lalEB30ZzXDK-29" value="회원아이디" style="ellipse;whiteSpace=wrap;html=1;fillColor=#dae8fc;strokeColor=#6c8ebf;fontSize=16;" vertex="1" parent="1">
          <mxGeometry x="140" y="865" width="120" height="60" as="geometry" />
        </mxCell>
        <mxCell id="SWG0Anp1lalEB30ZzXDK-30" value="" style="endArrow=none;html=1;rounded=0;entryX=1;entryY=0.5;entryDx=0;entryDy=0;exitX=0;exitY=0.5;exitDx=0;exitDy=0;" edge="1" parent="1" source="SWG0Anp1lalEB30ZzXDK-13" target="SWG0Anp1lalEB30ZzXDK-26">
          <mxGeometry width="50" height="50" relative="1" as="geometry">
            <mxPoint x="650" y="780" as="sourcePoint" />
            <mxPoint x="700" y="730" as="targetPoint" />
          </mxGeometry>
        </mxCell>
        <mxCell id="SWG0Anp1lalEB30ZzXDK-32" value="" style="endArrow=none;html=1;rounded=0;entryX=1;entryY=0.5;entryDx=0;entryDy=0;exitX=0;exitY=0.5;exitDx=0;exitDy=0;" edge="1" parent="1" source="SWG0Anp1lalEB30ZzXDK-13" target="SWG0Anp1lalEB30ZzXDK-27">
          <mxGeometry width="50" height="50" relative="1" as="geometry">
            <mxPoint x="300" y="810" as="sourcePoint" />
            <mxPoint x="270" y="690" as="targetPoint" />
          </mxGeometry>
        </mxCell>
        <mxCell id="SWG0Anp1lalEB30ZzXDK-33" value="" style="endArrow=none;html=1;rounded=0;entryX=1;entryY=0.5;entryDx=0;entryDy=0;exitX=0;exitY=0.5;exitDx=0;exitDy=0;" edge="1" parent="1" source="SWG0Anp1lalEB30ZzXDK-13" target="SWG0Anp1lalEB30ZzXDK-28">
          <mxGeometry width="50" height="50" relative="1" as="geometry">
            <mxPoint x="380" y="810" as="sourcePoint" />
            <mxPoint x="280" y="700" as="targetPoint" />
          </mxGeometry>
        </mxCell>
        <mxCell id="SWG0Anp1lalEB30ZzXDK-34" value="" style="endArrow=none;html=1;rounded=0;entryX=1;entryY=0.5;entryDx=0;entryDy=0;exitX=0;exitY=0.5;exitDx=0;exitDy=0;" edge="1" parent="1" source="SWG0Anp1lalEB30ZzXDK-13" target="SWG0Anp1lalEB30ZzXDK-29">
          <mxGeometry width="50" height="50" relative="1" as="geometry">
            <mxPoint x="390" y="820" as="sourcePoint" />
            <mxPoint x="290" y="710" as="targetPoint" />
          </mxGeometry>
        </mxCell>
        <mxCell id="SWG0Anp1lalEB30ZzXDK-35" value="출력" style="rhombus;whiteSpace=wrap;html=1;fillColor=#f5f5f5;fontColor=#333333;strokeColor=none;fontSize=16;" vertex="1" parent="1">
          <mxGeometry x="680" y="750" width="160" height="80" as="geometry" />
        </mxCell>
        <mxCell id="SWG0Anp1lalEB30ZzXDK-36" value="사진번호" style="ellipse;whiteSpace=wrap;html=1;fillColor=#dae8fc;strokeColor=#6c8ebf;fontSize=16;" vertex="1" parent="1">
          <mxGeometry x="1280" y="655" width="120" height="60" as="geometry" />
        </mxCell>
        <mxCell id="SWG0Anp1lalEB30ZzXDK-37" value="사진링크" style="ellipse;whiteSpace=wrap;html=1;fillColor=#dae8fc;strokeColor=#6c8ebf;fontSize=16;" vertex="1" parent="1">
          <mxGeometry x="1280" y="725" width="120" height="60" as="geometry" />
        </mxCell>
        <mxCell id="SWG0Anp1lalEB30ZzXDK-38" value="병변코드" style="ellipse;whiteSpace=wrap;html=1;fillColor=#dae8fc;strokeColor=#6c8ebf;fontSize=16;" vertex="1" parent="1">
          <mxGeometry x="1280" y="795" width="120" height="60" as="geometry" />
        </mxCell>
        <mxCell id="SWG0Anp1lalEB30ZzXDK-39" value="병변이름" style="ellipse;whiteSpace=wrap;html=1;fillColor=#dae8fc;strokeColor=#6c8ebf;fontSize=16;" vertex="1" parent="1">
          <mxGeometry x="1280" y="865" width="120" height="60" as="geometry" />
        </mxCell>
        <mxCell id="SWG0Anp1lalEB30ZzXDK-40" value="" style="endArrow=none;html=1;rounded=0;entryX=0;entryY=0.5;entryDx=0;entryDy=0;exitX=1;exitY=0.5;exitDx=0;exitDy=0;" edge="1" parent="1" source="SWG0Anp1lalEB30ZzXDK-15" target="SWG0Anp1lalEB30ZzXDK-36">
          <mxGeometry width="50" height="50" relative="1" as="geometry">
            <mxPoint x="1000" y="680" as="sourcePoint" />
            <mxPoint x="1220" y="620" as="targetPoint" />
          </mxGeometry>
        </mxCell>
        <mxCell id="SWG0Anp1lalEB30ZzXDK-41" value="" style="endArrow=none;html=1;rounded=0;entryX=0;entryY=0.5;entryDx=0;entryDy=0;exitX=1;exitY=0.5;exitDx=0;exitDy=0;" edge="1" parent="1" source="SWG0Anp1lalEB30ZzXDK-15" target="SWG0Anp1lalEB30ZzXDK-37">
          <mxGeometry width="50" height="50" relative="1" as="geometry">
            <mxPoint x="1170" y="800" as="sourcePoint" />
            <mxPoint x="1290" y="660" as="targetPoint" />
          </mxGeometry>
        </mxCell>
        <mxCell id="SWG0Anp1lalEB30ZzXDK-42" value="" style="endArrow=none;html=1;rounded=0;entryX=0;entryY=0.5;entryDx=0;entryDy=0;exitX=1;exitY=0.5;exitDx=0;exitDy=0;" edge="1" parent="1" source="SWG0Anp1lalEB30ZzXDK-15" target="SWG0Anp1lalEB30ZzXDK-38">
          <mxGeometry width="50" height="50" relative="1" as="geometry">
            <mxPoint x="1170" y="790" as="sourcePoint" />
            <mxPoint x="1290" y="730" as="targetPoint" />
          </mxGeometry>
        </mxCell>
        <mxCell id="SWG0Anp1lalEB30ZzXDK-43" value="" style="endArrow=none;html=1;rounded=0;entryX=0;entryY=0.5;entryDx=0;entryDy=0;exitX=1;exitY=0.5;exitDx=0;exitDy=0;" edge="1" parent="1" source="SWG0Anp1lalEB30ZzXDK-15" target="SWG0Anp1lalEB30ZzXDK-39">
          <mxGeometry width="50" height="50" relative="1" as="geometry">
            <mxPoint x="1170" y="800" as="sourcePoint" />
            <mxPoint x="1290" y="800" as="targetPoint" />
          </mxGeometry>
        </mxCell>
        <mxCell id="SWG0Anp1lalEB30ZzXDK-45" value="병변코드" style="ellipse;whiteSpace=wrap;html=1;fillColor=#dae8fc;strokeColor=#6c8ebf;fontSize=16;" vertex="1" parent="1">
          <mxGeometry x="1280" y="1150" width="120" height="60" as="geometry" />
        </mxCell>
        <mxCell id="SWG0Anp1lalEB30ZzXDK-47" value="병변이름" style="ellipse;whiteSpace=wrap;html=1;fillColor=#dae8fc;strokeColor=#6c8ebf;fontSize=16;" vertex="1" parent="1">
          <mxGeometry x="1280" y="1220" width="120" height="60" as="geometry" />
        </mxCell>
        <mxCell id="SWG0Anp1lalEB30ZzXDK-48" value="사진링크 3개" style="ellipse;whiteSpace=wrap;html=1;fillColor=#dae8fc;strokeColor=#6c8ebf;fontSize=16;" vertex="1" parent="1">
          <mxGeometry x="1280" y="1290" width="120" height="60" as="geometry" />
        </mxCell>
        <mxCell id="SWG0Anp1lalEB30ZzXDK-49" value="관련설명" style="ellipse;whiteSpace=wrap;html=1;fillColor=#dae8fc;strokeColor=#6c8ebf;fontSize=16;" vertex="1" parent="1">
          <mxGeometry x="1280" y="1360" width="120" height="60" as="geometry" />
        </mxCell>
        <mxCell id="SWG0Anp1lalEB30ZzXDK-50" value="" style="endArrow=none;html=1;rounded=0;entryX=0;entryY=0.5;entryDx=0;entryDy=0;exitX=1;exitY=0.5;exitDx=0;exitDy=0;" edge="1" parent="1" source="SWG0Anp1lalEB30ZzXDK-16" target="SWG0Anp1lalEB30ZzXDK-45">
          <mxGeometry width="50" height="50" relative="1" as="geometry">
            <mxPoint x="1160" y="1235" as="sourcePoint" />
            <mxPoint x="1290" y="1080" as="targetPoint" />
          </mxGeometry>
        </mxCell>
        <mxCell id="SWG0Anp1lalEB30ZzXDK-51" value="" style="endArrow=none;html=1;rounded=0;entryX=0;entryY=0.5;entryDx=0;entryDy=0;exitX=1;exitY=0.5;exitDx=0;exitDy=0;" edge="1" parent="1" source="SWG0Anp1lalEB30ZzXDK-16" target="SWG0Anp1lalEB30ZzXDK-47">
          <mxGeometry width="50" height="50" relative="1" as="geometry">
            <mxPoint x="1170" y="1295" as="sourcePoint" />
            <mxPoint x="1290" y="1205" as="targetPoint" />
          </mxGeometry>
        </mxCell>
        <mxCell id="SWG0Anp1lalEB30ZzXDK-52" value="" style="endArrow=none;html=1;rounded=0;entryX=0;entryY=0.5;entryDx=0;entryDy=0;exitX=1;exitY=0.5;exitDx=0;exitDy=0;" edge="1" parent="1" source="SWG0Anp1lalEB30ZzXDK-16" target="SWG0Anp1lalEB30ZzXDK-48">
          <mxGeometry width="50" height="50" relative="1" as="geometry">
            <mxPoint x="1200" y="1315" as="sourcePoint" />
            <mxPoint x="1290" y="1275" as="targetPoint" />
          </mxGeometry>
        </mxCell>
        <mxCell id="SWG0Anp1lalEB30ZzXDK-53" value="" style="endArrow=none;html=1;rounded=0;entryX=0;entryY=0.5;entryDx=0;entryDy=0;exitX=1;exitY=0.5;exitDx=0;exitDy=0;" edge="1" parent="1" source="SWG0Anp1lalEB30ZzXDK-16" target="SWG0Anp1lalEB30ZzXDK-49">
          <mxGeometry width="50" height="50" relative="1" as="geometry">
            <mxPoint x="1180" y="1305" as="sourcePoint" />
            <mxPoint x="1300" y="1285" as="targetPoint" />
          </mxGeometry>
        </mxCell>
        <mxCell id="SWG0Anp1lalEB30ZzXDK-54" value="출력" style="rhombus;whiteSpace=wrap;html=1;fillColor=#f5f5f5;fontColor=#333333;strokeColor=none;fontSize=16;" vertex="1" parent="1">
          <mxGeometry x="1020" y="1000" width="160" height="80" as="geometry" />
        </mxCell>
        <mxCell id="SWG0Anp1lalEB30ZzXDK-56" value="" style="endArrow=none;html=1;rounded=0;entryX=0;entryY=0.5;entryDx=0;entryDy=0;exitX=1;exitY=0.5;exitDx=0;exitDy=0;" edge="1" parent="1" source="SWG0Anp1lalEB30ZzXDK-2" target="SWG0Anp1lalEB30ZzXDK-12">
          <mxGeometry relative="1" as="geometry">
            <mxPoint x="800" y="300" as="sourcePoint" />
            <mxPoint x="960" y="300" as="targetPoint" />
          </mxGeometry>
        </mxCell>
        <mxCell id="SWG0Anp1lalEB30ZzXDK-57" value="1" style="resizable=0;html=1;whiteSpace=wrap;align=right;verticalAlign=bottom;fontSize=18;" connectable="0" vertex="1" parent="SWG0Anp1lalEB30ZzXDK-56">
          <mxGeometry x="1" relative="1" as="geometry">
            <mxPoint x="-90" as="offset" />
          </mxGeometry>
        </mxCell>
        <mxCell id="SWG0Anp1lalEB30ZzXDK-58" value="" style="endArrow=none;html=1;rounded=0;entryX=0;entryY=0.5;entryDx=0;entryDy=0;exitX=1;exitY=0.5;exitDx=0;exitDy=0;" edge="1" parent="1" source="SWG0Anp1lalEB30ZzXDK-3" target="SWG0Anp1lalEB30ZzXDK-2">
          <mxGeometry relative="1" as="geometry">
            <mxPoint x="520" y="324.17" as="sourcePoint" />
            <mxPoint x="720" y="324.17" as="targetPoint" />
          </mxGeometry>
        </mxCell>
        <mxCell id="SWG0Anp1lalEB30ZzXDK-59" value="1" style="resizable=0;html=1;whiteSpace=wrap;align=right;verticalAlign=bottom;fontSize=18;" connectable="0" vertex="1" parent="SWG0Anp1lalEB30ZzXDK-58">
          <mxGeometry x="1" relative="1" as="geometry">
            <mxPoint x="-90" as="offset" />
          </mxGeometry>
        </mxCell>
        <mxCell id="SWG0Anp1lalEB30ZzXDK-60" value="" style="endArrow=none;html=1;rounded=0;entryX=0.5;entryY=0;entryDx=0;entryDy=0;exitX=0.5;exitY=1;exitDx=0;exitDy=0;" edge="1" parent="1" source="SWG0Anp1lalEB30ZzXDK-3" target="SWG0Anp1lalEB30ZzXDK-25">
          <mxGeometry relative="1" as="geometry">
            <mxPoint x="490" y="260" as="sourcePoint" />
            <mxPoint x="690" y="260" as="targetPoint" />
          </mxGeometry>
        </mxCell>
        <mxCell id="SWG0Anp1lalEB30ZzXDK-61" value="1" style="resizable=0;html=1;whiteSpace=wrap;align=right;verticalAlign=bottom;fontSize=18;" connectable="0" vertex="1" parent="SWG0Anp1lalEB30ZzXDK-60">
          <mxGeometry x="1" relative="1" as="geometry">
            <mxPoint x="-10" y="-80" as="offset" />
          </mxGeometry>
        </mxCell>
        <mxCell id="SWG0Anp1lalEB30ZzXDK-62" value="" style="endArrow=none;html=1;rounded=0;entryX=0.5;entryY=0;entryDx=0;entryDy=0;exitX=0.5;exitY=1;exitDx=0;exitDy=0;" edge="1" parent="1" source="SWG0Anp1lalEB30ZzXDK-25" target="SWG0Anp1lalEB30ZzXDK-13">
          <mxGeometry relative="1" as="geometry">
            <mxPoint x="450" y="540" as="sourcePoint" />
            <mxPoint x="610" y="540" as="targetPoint" />
          </mxGeometry>
        </mxCell>
        <mxCell id="SWG0Anp1lalEB30ZzXDK-63" value="N" style="resizable=0;html=1;whiteSpace=wrap;align=right;verticalAlign=bottom;fontSize=18;" connectable="0" vertex="1" parent="SWG0Anp1lalEB30ZzXDK-62">
          <mxGeometry x="1" relative="1" as="geometry">
            <mxPoint x="-10" y="-90" as="offset" />
          </mxGeometry>
        </mxCell>
        <mxCell id="SWG0Anp1lalEB30ZzXDK-64" value="" style="endArrow=none;html=1;rounded=0;entryX=1;entryY=0.5;entryDx=0;entryDy=0;exitX=0;exitY=0.5;exitDx=0;exitDy=0;" edge="1" parent="1" source="SWG0Anp1lalEB30ZzXDK-35" target="SWG0Anp1lalEB30ZzXDK-13">
          <mxGeometry relative="1" as="geometry">
            <mxPoint x="430" y="570" as="sourcePoint" />
            <mxPoint x="430" y="770" as="targetPoint" />
          </mxGeometry>
        </mxCell>
        <mxCell id="SWG0Anp1lalEB30ZzXDK-65" value="N" style="resizable=0;html=1;whiteSpace=wrap;align=right;verticalAlign=bottom;fontSize=18;" connectable="0" vertex="1" parent="SWG0Anp1lalEB30ZzXDK-64">
          <mxGeometry x="1" relative="1" as="geometry">
            <mxPoint x="110" y="-5" as="offset" />
          </mxGeometry>
        </mxCell>
        <mxCell id="SWG0Anp1lalEB30ZzXDK-66" value="" style="endArrow=none;html=1;rounded=0;entryX=1;entryY=0.5;entryDx=0;entryDy=0;exitX=0;exitY=0.5;exitDx=0;exitDy=0;" edge="1" parent="1" source="SWG0Anp1lalEB30ZzXDK-15" target="SWG0Anp1lalEB30ZzXDK-35">
          <mxGeometry relative="1" as="geometry">
            <mxPoint x="1000" y="790" as="sourcePoint" />
            <mxPoint x="940" y="810" as="targetPoint" />
          </mxGeometry>
        </mxCell>
        <mxCell id="SWG0Anp1lalEB30ZzXDK-67" value="M" style="resizable=0;html=1;whiteSpace=wrap;align=right;verticalAlign=bottom;fontSize=18;" connectable="0" vertex="1" parent="SWG0Anp1lalEB30ZzXDK-66">
          <mxGeometry x="1" relative="1" as="geometry">
            <mxPoint x="120" y="-5" as="offset" />
          </mxGeometry>
        </mxCell>
        <mxCell id="SWG0Anp1lalEB30ZzXDK-68" value="" style="endArrow=none;html=1;rounded=0;entryX=0.5;entryY=1;entryDx=0;entryDy=0;exitX=0.5;exitY=0;exitDx=0;exitDy=0;" edge="1" parent="1" source="SWG0Anp1lalEB30ZzXDK-54" target="SWG0Anp1lalEB30ZzXDK-15">
          <mxGeometry relative="1" as="geometry">
            <mxPoint x="990" y="950" as="sourcePoint" />
            <mxPoint x="790" y="950" as="targetPoint" />
          </mxGeometry>
        </mxCell>
        <mxCell id="SWG0Anp1lalEB30ZzXDK-69" value="N" style="resizable=0;html=1;whiteSpace=wrap;align=right;verticalAlign=bottom;fontSize=18;" connectable="0" vertex="1" parent="SWG0Anp1lalEB30ZzXDK-68">
          <mxGeometry x="1" relative="1" as="geometry">
            <mxPoint x="30" y="120" as="offset" />
          </mxGeometry>
        </mxCell>
        <mxCell id="SWG0Anp1lalEB30ZzXDK-71" value="" style="endArrow=none;html=1;rounded=0;entryX=0.5;entryY=0;entryDx=0;entryDy=0;" edge="1" parent="1" source="SWG0Anp1lalEB30ZzXDK-54" target="SWG0Anp1lalEB30ZzXDK-16">
          <mxGeometry relative="1" as="geometry">
            <mxPoint x="1050" y="800" as="sourcePoint" />
            <mxPoint x="850" y="800" as="targetPoint" />
          </mxGeometry>
        </mxCell>
        <mxCell id="SWG0Anp1lalEB30ZzXDK-72" value="1" style="resizable=0;html=1;whiteSpace=wrap;align=right;verticalAlign=bottom;fontSize=18;" connectable="0" vertex="1" parent="SWG0Anp1lalEB30ZzXDK-71">
          <mxGeometry x="1" relative="1" as="geometry">
            <mxPoint x="20" y="-65" as="offset" />
          </mxGeometry>
        </mxCell>
        <mxCell id="SWG0Anp1lalEB30ZzXDK-73" value="회원아이디" style="ellipse;whiteSpace=wrap;html=1;fillColor=#dae8fc;strokeColor=#6c8ebf;fontSize=16;" vertex="1" parent="1">
          <mxGeometry x="1280" y="79.5" width="120" height="60" as="geometry" />
        </mxCell>
        <mxCell id="SWG0Anp1lalEB30ZzXDK-74" value="" style="endArrow=none;html=1;rounded=0;entryX=0;entryY=0.5;entryDx=0;entryDy=0;exitX=1;exitY=0.5;exitDx=0;exitDy=0;" edge="1" parent="1" source="SWG0Anp1lalEB30ZzXDK-12" target="SWG0Anp1lalEB30ZzXDK-73">
          <mxGeometry width="50" height="50" relative="1" as="geometry">
            <mxPoint x="1170" y="260" as="sourcePoint" />
            <mxPoint x="1290" y="155" as="targetPoint" />
          </mxGeometry>
        </mxCell>
      </root>
    </mxGraphModel>
  </diagram>
</mxfile>
